<svg width="14" height="13" viewBox="0 0 14 13" fill="none" xmlns="http://www.w3.org/2000/svg">
<path d="M13.1209 0.5H0.879052C0.39553 0.5 0 0.874279 0 1.33182C0 1.78937 0.39553 2.16364 0.879052 2.16364H13.1209C13.6045 2.16364 14 1.78937 14 1.33182C14 0.874279 13.6045 0.5 13.1209 0.5Z" fill="#3F53BE"/>
<path d="M13.1209 5.6786H0.879052C0.39553 5.6786 0 6.05288 0 6.51042C0 6.96797 0.39553 7.34225 0.879052 7.34225H13.1209C13.6045 7.34225 14 6.96797 14 6.51042C14 6.05303 13.6045 5.6786 13.1209 5.6786Z" fill="#3F53BE"/>
<path d="M0.879052 10.8364H13.1209C13.6045 10.8364 14 11.2108 14 11.6682C14 12.1257 13.6045 12.5 13.1209 12.5H0.879052C0.39553 12.5 0 12.1257 0 11.6682C0 11.2107 0.39553 10.8364 0.879052 10.8364Z" fill="#3F53BE"/>
</svg>
